<svg width="268" height="64" viewBox="0 0 268 64" xmlns="http://www.w3.org/2000/svg">
  <defs>
    <!-- Gradient for subtle depth -->
    <linearGradient id="textGradient" x1="0%" y1="0%" x2="100%" y2="0%">
      <stop offset="0%" style="stop-color:#FFFFFF;stop-opacity:1" />
      <stop offset="50%" style="stop-color:#F0F0F0;stop-opacity:1" />
      <stop offset="100%" style="stop-color:#FFFFFF;stop-opacity:1" />
    </linearGradient>
    
    <!-- Subtle shadow filter -->
    <filter id="dropShadow" x="-20%" y="-20%" width="140%" height="140%">
      <feDropShadow dx="1" dy="1" stdDeviation="0.5" flood-color="#000000" flood-opacity="0.2"/>
    </filter>
  </defs>
  
  <!-- Background decorative elements -->
  <circle cx="24" cy="32" r="2" fill="#CCCCCC" opacity="0.6"/>
  <circle cx="244" cy="32" r="2" fill="#CCCCCC" opacity="0.6"/>
  
  <!-- Decorative lines -->
  <line x1="40" y1="32" x2="60" y2="32" stroke="#CCCCCC" stroke-width="1" opacity="0.8"/>
  <line x1="208" y1="32" x2="228" y2="32" stroke="#CCCCCC" stroke-width="1" opacity="0.8"/>
  
  <!-- Main text "VISI" -->
  <text x="134" y="42" 
        font-family="serif" 
        font-size="36" 
        font-weight="bold" 
        text-anchor="middle" 
        fill="url(#textGradient)"
        filter="url(#dropShadow)"
        letter-spacing="4px">VISI</text>
  
  <!-- Decorative underline -->
  <line x1="84" y1="50" x2="184" y2="50" stroke="#FFFFFF" stroke-width="2" opacity="0.8"/>
  
  <!-- Small decorative dots -->
  <circle cx="80" cy="50" r="1.5" fill="#FFFFFF"/>
  <circle cx="188" cy="50" r="1.5" fill="#FFFFFF"/>
  
  <!-- Elegant corner accents -->
  <path d="M 10 10 L 25 10 L 25 12 L 12 12 L 12 25 L 10 25 Z" fill="#FFFFFF" opacity="0.6"/>
  <path d="M 258 10 L 243 10 L 243 12 L 256 12 L 256 25 L 258 25 Z" fill="#FFFFFF" opacity="0.6"/>
  <path d="M 10 54 L 25 54 L 25 52 L 12 52 L 12 39 L 10 39 Z" fill="#FFFFFF" opacity="0.6"/>
  <path d="M 258 54 L 243 54 L 243 52 L 256 52 L 256 39 L 258 39 Z" fill="#FFFFFF" opacity="0.6"/>
</svg>